<svg width="150" height="38" viewBox="0 0 150 38" fill="none" xmlns="http://www.w3.org/2000/svg">
<path d="M0 8C0 3.58172 3.58172 0 8 0H142C146.418 0 150 3.58172 150 8V30C150 34.4183 146.418 38 142 38H8C3.58172 38 0 34.4183 0 30V8Z" fill="#6665D2"/>
<path d="M63.328 25V13.8H68.416C69.632 13.8 70.704 14.0347 71.632 14.504C72.56 14.9627 73.2853 15.608 73.808 16.44C74.3307 17.272 74.592 18.2587 74.592 19.4C74.592 20.5307 74.3307 21.5173 73.808 22.36C73.2853 23.192 72.56 23.8427 71.632 24.312C70.704 24.7707 69.632 25 68.416 25H63.328ZM65.92 22.872H68.288C69.0347 22.872 69.68 22.7333 70.224 22.456C70.7787 22.168 71.2053 21.7627 71.504 21.24C71.8133 20.7173 71.968 20.104 71.968 19.4C71.968 18.6853 71.8133 18.072 71.504 17.56C71.2053 17.0373 70.7787 16.6373 70.224 16.36C69.68 16.072 69.0347 15.928 68.288 15.928H65.92V22.872ZM76.3708 25V16.392H78.8668V25H76.3708ZM77.6188 15.192C77.1601 15.192 76.7868 15.0587 76.4988 14.792C76.2108 14.5253 76.0668 14.1947 76.0668 13.8C76.0668 13.4053 76.2108 13.0747 76.4988 12.808C76.7868 12.5413 77.1601 12.408 77.6188 12.408C78.0774 12.408 78.4508 12.536 78.7388 12.792C79.0268 13.0373 79.1708 13.3573 79.1708 13.752C79.1708 14.168 79.0268 14.5147 78.7388 14.792C78.4614 15.0587 78.0881 15.192 77.6188 15.192ZM84.0793 25.128C83.3433 25.128 82.6339 25.0427 81.9513 24.872C81.2793 24.6907 80.7459 24.4667 80.3513 24.2L81.1833 22.408C81.5779 22.6533 82.0419 22.856 82.5753 23.016C83.1193 23.1653 83.6526 23.24 84.1753 23.24C84.7513 23.24 85.1566 23.1707 85.3913 23.032C85.6366 22.8933 85.7593 22.7013 85.7593 22.456C85.7593 22.2533 85.6633 22.104 85.4713 22.008C85.2899 21.9013 85.0446 21.8213 84.7352 21.768C84.4259 21.7147 84.0846 21.6613 83.7113 21.608C83.3486 21.5547 82.9806 21.4853 82.6073 21.4C82.2339 21.304 81.8926 21.1653 81.5833 20.984C81.2739 20.8027 81.0233 20.5573 80.8313 20.248C80.6499 19.9387 80.5592 19.5387 80.5592 19.048C80.5592 18.504 80.7139 18.024 81.0233 17.608C81.3433 17.192 81.8019 16.8667 82.3993 16.632C82.9966 16.3867 83.7113 16.264 84.5433 16.264C85.1299 16.264 85.7273 16.328 86.3353 16.456C86.9433 16.584 87.4499 16.7707 87.8553 17.016L87.0233 18.792C86.6073 18.5467 86.1859 18.3813 85.7593 18.296C85.3433 18.2 84.9379 18.152 84.5433 18.152C83.9886 18.152 83.5833 18.2267 83.3273 18.376C83.0713 18.5253 82.9433 18.7173 82.9433 18.952C82.9433 19.1653 83.0339 19.3253 83.2153 19.432C83.4073 19.5387 83.6579 19.624 83.9673 19.688C84.2766 19.752 84.6126 19.8107 84.9753 19.864C85.3486 19.9067 85.7219 19.976 86.0953 20.072C86.4686 20.168 86.8046 20.3067 87.1033 20.488C87.4126 20.6587 87.6633 20.8987 87.8553 21.208C88.0473 21.5067 88.1433 21.9013 88.1433 22.392C88.1433 22.9253 87.9833 23.4 87.6633 23.816C87.3433 24.2213 86.8793 24.5413 86.2713 24.776C85.6739 25.0107 84.9433 25.128 84.0793 25.128ZM93.8433 25.128C92.9153 25.128 92.0886 24.9413 91.3633 24.568C90.6379 24.184 90.0673 23.656 89.6513 22.984C89.2459 22.312 89.0433 21.5493 89.0433 20.696C89.0433 19.832 89.2459 19.0693 89.6513 18.408C90.0673 17.736 90.6379 17.2133 91.3633 16.84C92.0886 16.456 92.9153 16.264 93.8433 16.264C94.7499 16.264 95.5393 16.456 96.2113 16.84C96.8833 17.2133 97.3793 17.752 97.6993 18.456L95.7633 19.496C95.5393 19.0907 95.2566 18.792 94.9153 18.6C94.5846 18.408 94.2219 18.312 93.8273 18.312C93.4006 18.312 93.0166 18.408 92.6753 18.6C92.3339 18.792 92.0619 19.064 91.8593 19.416C91.6673 19.768 91.5713 20.1947 91.5713 20.696C91.5713 21.1973 91.6673 21.624 91.8593 21.976C92.0619 22.328 92.3339 22.6 92.6753 22.792C93.0166 22.984 93.4006 23.08 93.8273 23.08C94.2219 23.08 94.5846 22.9893 94.9153 22.808C95.2566 22.616 95.5393 22.312 95.7633 21.896L97.6993 22.952C97.3793 23.6453 96.8833 24.184 96.2113 24.568C95.5393 24.9413 94.7499 25.128 93.8433 25.128ZM103.123 25.128C102.206 25.128 101.39 24.936 100.675 24.552C99.971 24.168 99.411 23.6453 98.995 22.984C98.5897 22.312 98.387 21.5493 98.387 20.696C98.387 19.832 98.5897 19.0693 98.995 18.408C99.411 17.736 99.971 17.2133 100.675 16.84C101.39 16.456 102.206 16.264 103.123 16.264C104.03 16.264 104.84 16.456 105.555 16.84C106.27 17.2133 106.83 17.7307 107.235 18.392C107.64 19.0533 107.843 19.8213 107.843 20.696C107.843 21.5493 107.64 22.312 107.235 22.984C106.83 23.6453 106.27 24.168 105.555 24.552C104.84 24.936 104.03 25.128 103.123 25.128ZM103.123 23.08C103.539 23.08 103.912 22.984 104.243 22.792C104.574 22.6 104.835 22.328 105.027 21.976C105.219 21.6133 105.315 21.1867 105.315 20.696C105.315 20.1947 105.219 19.768 105.027 19.416C104.835 19.064 104.574 18.792 104.243 18.6C103.912 18.408 103.539 18.312 103.123 18.312C102.707 18.312 102.334 18.408 102.003 18.6C101.672 18.792 101.406 19.064 101.203 19.416C101.011 19.768 100.915 20.1947 100.915 20.696C100.915 21.1867 101.011 21.6133 101.203 21.976C101.406 22.328 101.672 22.6 102.003 22.792C102.334 22.984 102.707 23.08 103.123 23.08ZM109.511 25V16.392H111.895V18.824L111.559 18.12C111.815 17.512 112.226 17.0533 112.791 16.744C113.357 16.424 114.045 16.264 114.855 16.264V18.568C114.749 18.5573 114.653 18.552 114.567 18.552C114.482 18.5413 114.391 18.536 114.295 18.536C113.613 18.536 113.058 18.7333 112.631 19.128C112.215 19.512 112.007 20.1147 112.007 20.936V25H109.511ZM119.973 25.128C119.162 25.128 118.432 24.9467 117.781 24.584C117.13 24.2107 116.613 23.6933 116.229 23.032C115.856 22.3707 115.669 21.592 115.669 20.696C115.669 19.7893 115.856 19.0053 116.229 18.344C116.613 17.6827 117.13 17.1707 117.781 16.808C118.432 16.4453 119.162 16.264 119.973 16.264C120.698 16.264 121.333 16.424 121.877 16.744C122.421 17.064 122.842 17.5493 123.141 18.2C123.44 18.8507 123.589 19.6827 123.589 20.696C123.589 21.6987 123.445 22.5307 123.157 23.192C122.869 23.8427 122.453 24.328 121.909 24.648C121.376 24.968 120.73 25.128 119.973 25.128ZM120.405 23.08C120.81 23.08 121.178 22.984 121.509 22.792C121.84 22.6 122.101 22.328 122.293 21.976C122.496 21.6133 122.597 21.1867 122.597 20.696C122.597 20.1947 122.496 19.768 122.293 19.416C122.101 19.064 121.84 18.792 121.509 18.6C121.178 18.408 120.81 18.312 120.405 18.312C119.989 18.312 119.616 18.408 119.285 18.6C118.954 18.792 118.688 19.064 118.485 19.416C118.293 19.768 118.197 20.1947 118.197 20.696C118.197 21.1867 118.293 21.6133 118.485 21.976C118.688 22.328 118.954 22.6 119.285 22.792C119.616 22.984 119.989 23.08 120.405 23.08ZM122.661 25V23.24L122.709 20.68L122.549 18.136V13.128H125.045V25H122.661Z" fill="white"/>
<path d="M44.4215 11.4974C40.8681 8.9283 37.4635 9.0005 37.4635 9.0005L37.1156 9.38459C41.34 10.6091 43.3033 12.4097 43.3033 12.4097C37.2592 9.19465 29.5607 9.21772 23.2741 12.4097C23.2741 12.4097 25.3117 10.5129 29.7849 9.28842L29.5365 9.0002C29.5365 9.0002 26.1567 8.9283 22.5785 11.4971C22.5785 11.4971 19 17.7154 19 25.3745C19 25.3745 21.0876 28.8319 26.5794 29C26.5794 29 27.4988 27.9436 28.2443 27.0313C25.0885 26.119 23.8955 24.2222 23.8955 24.2222C25.8783 25.4209 27.883 26.1711 30.3815 26.6472C34.4463 27.4555 39.5024 26.6244 43.2788 24.2222C43.2788 24.2222 42.0362 26.1669 38.7808 27.0553C39.5263 27.9436 40.4209 28.976 40.4209 28.976C45.9127 28.808 48 25.3505 48 25.3748C47.9997 17.7157 44.4215 11.4974 44.4215 11.4974ZM28.8654 23.1418C27.4737 23.1418 26.3307 21.9653 26.3307 20.5008C26.4324 16.9933 31.3239 17.0041 31.4002 20.5008C31.4002 21.9653 30.2817 23.1418 28.8654 23.1418ZM37.9355 23.1418C36.5438 23.1418 35.4007 21.9653 35.4007 20.5008C35.5124 17.0002 40.3428 16.9987 40.4702 20.5008C40.4702 21.9653 39.352 23.1418 37.9355 23.1418Z" fill="white"/>
</svg>
