<svg width="150" height="38" viewBox="0 0 150 38" fill="none" xmlns="http://www.w3.org/2000/svg">
<rect width="150" height="38" rx="8" fill="#1B1B1B"/>
<path d="M64.736 25.192C63.8507 25.192 63.0347 25.0533 62.288 24.776C61.552 24.488 60.9067 24.0827 60.352 23.56C59.808 23.0373 59.3813 22.424 59.072 21.72C58.7733 21.016 58.624 20.2427 58.624 19.4C58.624 18.5573 58.7733 17.784 59.072 17.08C59.3813 16.376 59.8133 15.7627 60.368 15.24C60.9227 14.7173 61.5733 14.3173 62.32 14.04C63.0667 13.752 63.888 13.608 64.784 13.608C65.776 13.608 66.6667 13.7733 67.456 14.104C68.256 14.4347 68.928 14.9147 69.472 15.544L67.808 17.08C67.4027 16.6533 66.96 16.3387 66.48 16.136C66 15.9227 65.4773 15.816 64.912 15.816C64.368 15.816 63.872 15.9013 63.424 16.072C62.976 16.2427 62.5867 16.488 62.256 16.808C61.936 17.128 61.6853 17.5067 61.504 17.944C61.3333 18.3813 61.248 18.8667 61.248 19.4C61.248 19.9227 61.3333 20.4027 61.504 20.84C61.6853 21.2773 61.936 21.6613 62.256 21.992C62.5867 22.312 62.9707 22.5573 63.408 22.728C63.856 22.8987 64.3467 22.984 64.88 22.984C65.392 22.984 65.888 22.904 66.368 22.744C66.8587 22.5733 67.3333 22.2907 67.792 21.896L69.264 23.768C68.656 24.2267 67.9467 24.5787 67.136 24.824C66.336 25.0693 65.536 25.192 64.736 25.192ZM66.896 23.432V19.224H69.264V23.768L66.896 23.432ZM71.4958 25V16.392H73.9918V25H71.4958ZM72.7438 15.192C72.2851 15.192 71.9118 15.0587 71.6238 14.792C71.3358 14.5253 71.1918 14.1947 71.1918 13.8C71.1918 13.4053 71.3358 13.0747 71.6238 12.808C71.9118 12.5413 72.2851 12.408 72.7438 12.408C73.2024 12.408 73.5758 12.536 73.8638 12.792C74.1518 13.0373 74.2958 13.3573 74.2958 13.752C74.2958 14.168 74.1518 14.5147 73.8638 14.792C73.5864 15.0587 73.2131 15.192 72.7438 15.192ZM79.8283 25.128C78.8149 25.128 78.0256 24.872 77.4603 24.36C76.8949 23.8373 76.6123 23.064 76.6123 22.04V14.488H79.1083V22.008C79.1083 22.3707 79.2043 22.6533 79.3963 22.856C79.5883 23.048 79.8496 23.144 80.1803 23.144C80.5749 23.144 80.9109 23.0373 81.1883 22.824L81.8603 24.584C81.6043 24.7653 81.2949 24.904 80.9323 25C80.5803 25.0853 80.2123 25.128 79.8283 25.128ZM75.2843 18.504V16.584H81.2523V18.504H75.2843ZM91.1174 13.8H93.7094V25H91.1174V13.8ZM86.0294 25H83.4374V13.8H86.0294V25ZM91.3094 20.408H85.8374V18.216H91.3094V20.408ZM99.8153 25.128C99.1006 25.128 98.4606 24.9893 97.8953 24.712C97.3406 24.4347 96.9086 24.0133 96.5993 23.448C96.2899 22.872 96.1353 22.1413 96.1353 21.256V16.392H98.6313V20.888C98.6313 21.6027 98.7806 22.1307 99.0793 22.472C99.3886 22.8027 99.8206 22.968 100.375 22.968C100.759 22.968 101.101 22.888 101.399 22.728C101.698 22.5573 101.933 22.3013 102.103 21.96C102.274 21.608 102.359 21.1707 102.359 20.648V16.392H104.855V25H102.487V22.632L102.919 23.32C102.631 23.9173 102.205 24.3707 101.639 24.68C101.085 24.9787 100.477 25.128 99.8153 25.128ZM112.256 25.128C111.498 25.128 110.848 24.968 110.304 24.648C109.76 24.328 109.344 23.8427 109.056 23.192C108.768 22.5307 108.624 21.6987 108.624 20.696C108.624 19.6827 108.773 18.8507 109.072 18.2C109.381 17.5493 109.808 17.064 110.352 16.744C110.896 16.424 111.53 16.264 112.256 16.264C113.066 16.264 113.792 16.4453 114.432 16.808C115.082 17.1707 115.594 17.6827 115.968 18.344C116.352 19.0053 116.544 19.7893 116.544 20.696C116.544 21.592 116.352 22.3707 115.968 23.032C115.594 23.6933 115.082 24.2107 114.432 24.584C113.792 24.9467 113.066 25.128 112.256 25.128ZM107.168 25V13.128H109.664V18.136L109.504 20.68L109.552 23.24V25H107.168ZM111.824 23.08C112.24 23.08 112.608 22.984 112.928 22.792C113.258 22.6 113.52 22.328 113.712 21.976C113.914 21.6133 114.016 21.1867 114.016 20.696C114.016 20.1947 113.914 19.768 113.712 19.416C113.52 19.064 113.258 18.792 112.928 18.6C112.608 18.408 112.24 18.312 111.824 18.312C111.408 18.312 111.034 18.408 110.704 18.6C110.373 18.792 110.112 19.064 109.92 19.416C109.728 19.768 109.632 20.1947 109.632 20.696C109.632 21.1867 109.728 21.6133 109.92 21.976C110.112 22.328 110.373 22.6 110.704 22.792C111.034 22.984 111.408 23.08 111.824 23.08Z" fill="white"/>
<path d="M35.5 8C32.7693 8.00012 30.1277 8.99646 28.048 10.8108C25.9682 12.6251 24.586 15.1389 24.1485 17.9025C23.7111 20.6661 24.2471 23.4992 25.6605 25.8947C27.0739 28.2902 29.2726 30.0919 31.8631 30.9774C32.4381 31.0806 32.6537 30.7269 32.6537 30.4174C32.6537 30.1373 32.6394 29.2088 32.6394 28.2213C29.75 28.7666 29.0025 27.4992 28.7725 26.8359C28.5173 26.1909 28.1127 25.6193 27.5938 25.1704C27.1913 24.9494 26.6163 24.404 27.5794 24.3893C27.9471 24.4302 28.2998 24.5614 28.6076 24.7718C28.9154 24.9822 29.1692 25.2655 29.3475 25.5978C29.5048 25.8875 29.7163 26.1426 29.9699 26.3483C30.2234 26.5541 30.5141 26.7065 30.8253 26.7969C31.1364 26.8872 31.4619 26.9138 31.783 26.8749C32.1042 26.8361 32.4147 26.7327 32.6968 26.5706C32.7466 25.9712 33.0072 25.4107 33.43 24.9936C30.8712 24.6988 28.1975 23.6818 28.1975 19.1719C28.1813 18 28.6031 16.8663 29.3762 16.0031C29.0247 14.9846 29.0658 13.8669 29.4912 12.8785C29.4912 12.8785 30.4543 12.569 32.6537 14.0871C34.5354 13.5564 36.522 13.5564 38.4037 14.0871C40.603 12.5543 41.5662 12.8785 41.5662 12.8785C41.9917 13.8669 42.0328 14.9846 41.6812 16.0031C42.4566 16.8648 42.8788 17.9995 42.8599 19.1719C42.8599 23.6966 40.1718 24.6988 37.6131 24.9936C37.8875 25.2788 38.0989 25.6212 38.2328 25.9976C38.3668 26.374 38.4201 26.7755 38.3893 27.1749C38.3893 28.752 38.3749 30.0194 38.3749 30.4174C38.3749 30.7269 38.5905 31.0954 39.1655 30.9775C41.7515 30.0848 43.9438 28.2788 45.3513 25.8821C46.7587 23.4853 47.2895 20.6538 46.8491 17.8928C46.4086 15.1319 45.0255 12.6213 42.9467 10.8092C40.8678 8.99709 38.2285 8.00146 35.5 8Z" fill="white"/>
</svg>
