<svg width="150" height="38" viewBox="0 0 150 38" fill="none" xmlns="http://www.w3.org/2000/svg">
<path d="M0 8C0 3.58172 3.58172 0 8 0H142C146.418 0 150 3.58172 150 8V30C150 34.4183 146.418 38 142 38H8C3.58172 38 0 34.4183 0 30V8Z" fill="white"/>
<path d="M30.34 12.46C30.1027 12.46 29.8707 12.5304 29.6733 12.6622C29.476 12.7941 29.3222 12.9815 29.2313 13.2008C29.1405 13.4201 29.1168 13.6613 29.1631 13.8941C29.2094 14.1269 29.3236 14.3407 29.4915 14.5085C29.6593 14.6764 29.8731 14.7906 30.1059 14.8369C30.3387 14.8832 30.5799 14.8595 30.7992 14.7687C31.0185 14.6778 31.2059 14.524 31.3378 14.3267C31.4696 14.1293 31.54 13.8973 31.54 13.66C31.54 13.3417 31.4136 13.0365 31.1885 12.8115C30.9635 12.5864 30.6583 12.46 30.34 12.46ZM34.94 14.88C34.9206 14.0503 34.7652 13.2294 34.48 12.45C34.2257 11.7831 33.83 11.1793 33.32 10.68C32.8248 10.1674 32.2196 9.77418 31.55 9.53C30.7727 9.23616 29.9508 9.07721 29.12 9.06C28.06 9 27.72 9 25 9C22.28 9 21.94 9 20.88 9.06C20.0492 9.07721 19.2273 9.23616 18.45 9.53C17.7817 9.77665 17.1769 10.1696 16.68 10.68C16.1674 11.1752 15.7742 11.7804 15.53 12.45C15.2362 13.2273 15.0772 14.0492 15.06 14.88C15 15.94 15 16.28 15 19C15 21.72 15 22.06 15.06 23.12C15.0772 23.9508 15.2362 24.7727 15.53 25.55C15.7742 26.2196 16.1674 26.8248 16.68 27.32C17.1769 27.8304 17.7817 28.2234 18.45 28.47C19.2273 28.7638 20.0492 28.9228 20.88 28.94C21.94 29 22.28 29 25 29C27.72 29 28.06 29 29.12 28.94C29.9508 28.9228 30.7727 28.7638 31.55 28.47C32.2196 28.2258 32.8248 27.8326 33.32 27.32C33.8322 26.8226 34.2283 26.2182 34.48 25.55C34.7652 24.7706 34.9206 23.9497 34.94 23.12C34.94 22.06 35 21.72 35 19C35 16.28 35 15.94 34.94 14.88ZM33.14 23C33.1327 23.6348 33.0178 24.2637 32.8 24.86C32.6403 25.2952 32.3839 25.6884 32.05 26.01C31.7256 26.3405 31.3332 26.5964 30.9 26.76C30.3037 26.9778 29.6748 27.0927 29.04 27.1C28.04 27.15 27.67 27.16 25.04 27.16C22.41 27.16 22.04 27.16 21.04 27.1C20.3809 27.1123 19.7246 27.0109 19.1 26.8C18.6858 26.6281 18.3114 26.3728 18 26.05C17.6681 25.7287 17.4148 25.3352 17.26 24.9C17.0159 24.2952 16.8804 23.6519 16.86 23C16.86 22 16.8 21.63 16.8 19C16.8 16.37 16.8 16 16.86 15C16.8645 14.3511 16.983 13.7079 17.21 13.1C17.386 12.6779 17.6563 12.3017 18 12C18.3038 11.6562 18.6793 11.3831 19.1 11.2C19.7096 10.98 20.352 10.8651 21 10.86C22 10.86 22.37 10.8 25 10.8C27.63 10.8 28 10.8 29 10.86C29.6348 10.8673 30.2637 10.9822 30.86 11.2C31.3144 11.3687 31.7223 11.6428 32.05 12C32.3777 12.3072 32.6338 12.6827 32.8 13.1C33.0223 13.7089 33.1373 14.3518 33.14 15C33.19 16 33.2 16.37 33.2 19C33.2 21.63 33.19 22 33.14 23ZM25 13.87C23.9858 13.872 22.995 14.1745 22.1527 14.7394C21.3103 15.3043 20.6544 16.1062 20.2676 17.0438C19.8809 17.9813 19.7807 19.0125 19.9798 20.0069C20.1789 21.0014 20.6682 21.9145 21.3861 22.631C22.1039 23.3474 23.018 23.835 24.0129 24.0321C25.0077 24.2293 26.0387 24.1271 26.9755 23.7385C27.9123 23.35 28.7129 22.6924 29.2761 21.849C29.8394 21.0056 30.14 20.0142 30.14 19C30.1413 18.3251 30.0092 17.6566 29.7512 17.033C29.4933 16.4093 29.1146 15.8428 28.6369 15.3661C28.1592 14.8893 27.5919 14.5117 26.9678 14.2549C26.3436 13.9982 25.6749 13.8674 25 13.87ZM25 22.33C24.3414 22.33 23.6976 22.1347 23.15 21.7688C22.6023 21.4029 22.1755 20.8828 21.9235 20.2743C21.6714 19.6659 21.6055 18.9963 21.734 18.3503C21.8625 17.7044 22.1796 17.111 22.6453 16.6453C23.111 16.1796 23.7044 15.8625 24.3503 15.734C24.9963 15.6055 25.6659 15.6714 26.2743 15.9235C26.8828 16.1755 27.4029 16.6023 27.7688 17.15C28.1347 17.6976 28.33 18.3414 28.33 19C28.33 19.4373 28.2439 19.8703 28.0765 20.2743C27.9092 20.6784 27.6639 21.0454 27.3547 21.3547C27.0454 21.6639 26.6784 21.9092 26.2743 22.0765C25.8703 22.2439 25.4373 22.33 25 22.33Z" fill="#575757"/>
<path d="M47.328 25V13.8H49.92V25H47.328ZM57.634 16.264C58.3167 16.264 58.9247 16.4027 59.458 16.68C60.002 16.9467 60.4287 17.3627 60.738 17.928C61.0473 18.4827 61.202 19.1973 61.202 20.072V25H58.706V20.456C58.706 19.7627 58.5513 19.2507 58.242 18.92C57.9433 18.5893 57.5167 18.424 56.962 18.424C56.5673 18.424 56.21 18.5093 55.89 18.68C55.5807 18.84 55.3353 19.0907 55.154 19.432C54.9833 19.7733 54.898 20.2107 54.898 20.744V25H52.402V16.392H54.786V18.776L54.338 18.056C54.6473 17.48 55.09 17.0373 55.666 16.728C56.242 16.4187 56.898 16.264 57.634 16.264ZM66.3605 25.128C65.6245 25.128 64.9152 25.0427 64.2325 24.872C63.5605 24.6907 63.0272 24.4667 62.6325 24.2L63.4645 22.408C63.8592 22.6533 64.3232 22.856 64.8565 23.016C65.4005 23.1653 65.9338 23.24 66.4565 23.24C67.0325 23.24 67.4378 23.1707 67.6725 23.032C67.9178 22.8933 68.0405 22.7013 68.0405 22.456C68.0405 22.2533 67.9445 22.104 67.7525 22.008C67.5712 21.9013 67.3258 21.8213 67.0165 21.768C66.7072 21.7147 66.3658 21.6613 65.9925 21.608C65.6298 21.5547 65.2618 21.4853 64.8885 21.4C64.5152 21.304 64.1738 21.1653 63.8645 20.984C63.5552 20.8027 63.3045 20.5573 63.1125 20.248C62.9312 19.9387 62.8405 19.5387 62.8405 19.048C62.8405 18.504 62.9952 18.024 63.3045 17.608C63.6245 17.192 64.0832 16.8667 64.6805 16.632C65.2778 16.3867 65.9925 16.264 66.8245 16.264C67.4112 16.264 68.0085 16.328 68.6165 16.456C69.2245 16.584 69.7312 16.7707 70.1365 17.016L69.3045 18.792C68.8885 18.5467 68.4672 18.3813 68.0405 18.296C67.6245 18.2 67.2192 18.152 66.8245 18.152C66.2698 18.152 65.8645 18.2267 65.6085 18.376C65.3525 18.5253 65.2245 18.7173 65.2245 18.952C65.2245 19.1653 65.3152 19.3253 65.4965 19.432C65.6885 19.5387 65.9392 19.624 66.2485 19.688C66.5578 19.752 66.8938 19.8107 67.2565 19.864C67.6298 19.9067 68.0032 19.976 68.3765 20.072C68.7498 20.168 69.0858 20.3067 69.3845 20.488C69.6938 20.6587 69.9445 20.8987 70.1365 21.208C70.3285 21.5067 70.4245 21.9013 70.4245 22.392C70.4245 22.9253 70.2645 23.4 69.9445 23.816C69.6245 24.2213 69.1605 24.5413 68.5525 24.776C67.9552 25.0107 67.2245 25.128 66.3605 25.128ZM75.4845 25.128C74.4712 25.128 73.6818 24.872 73.1165 24.36C72.5512 23.8373 72.2685 23.064 72.2685 22.04V14.488H74.7645V22.008C74.7645 22.3707 74.8605 22.6533 75.0525 22.856C75.2445 23.048 75.5058 23.144 75.8365 23.144C76.2312 23.144 76.5672 23.0373 76.8445 22.824L77.5165 24.584C77.2605 24.7653 76.9512 24.904 76.5885 25C76.2365 25.0853 75.8685 25.128 75.4845 25.128ZM70.9405 18.504V16.584H76.9085V18.504H70.9405ZM84.1976 25V23.32L84.0376 22.952V19.944C84.0376 19.4107 83.8723 18.9947 83.5416 18.696C83.2216 18.3973 82.7256 18.248 82.0536 18.248C81.595 18.248 81.1416 18.3227 80.6936 18.472C80.2563 18.6107 79.883 18.8027 79.5736 19.048L78.6776 17.304C79.147 16.9733 79.7123 16.7173 80.3736 16.536C81.035 16.3547 81.707 16.264 82.3896 16.264C83.7016 16.264 84.7203 16.5733 85.4456 17.192C86.171 17.8107 86.5336 18.776 86.5336 20.088V25H84.1976ZM81.5736 25.128C80.9016 25.128 80.3256 25.016 79.8456 24.792C79.3656 24.5573 78.9976 24.2427 78.7416 23.848C78.4856 23.4533 78.3576 23.0107 78.3576 22.52C78.3576 22.008 78.4803 21.56 78.7256 21.176C78.9816 20.792 79.3816 20.4933 79.9256 20.28C80.4696 20.056 81.179 19.944 82.0536 19.944H84.3416V21.4H82.3256C81.739 21.4 81.3336 21.496 81.1096 21.688C80.8963 21.88 80.7896 22.12 80.7896 22.408C80.7896 22.728 80.9123 22.984 81.1576 23.176C81.4136 23.3573 81.7603 23.448 82.1976 23.448C82.6136 23.448 82.987 23.352 83.3176 23.16C83.6483 22.9573 83.8883 22.664 84.0376 22.28L84.4216 23.432C84.2403 23.9867 83.9096 24.408 83.4296 24.696C82.9496 24.984 82.331 25.128 81.5736 25.128ZM92.9031 28.232C92.0925 28.232 91.3085 28.1307 90.5511 27.928C89.8045 27.736 89.1805 27.4427 88.6791 27.048L89.6711 25.256C90.0338 25.5547 90.4925 25.7893 91.0471 25.96C91.6125 26.1413 92.1671 26.232 92.7111 26.232C93.5965 26.232 94.2365 26.0347 94.6311 25.64C95.0365 25.2453 95.2391 24.6587 95.2391 23.88V22.584L95.3991 20.424L95.3671 18.248V16.392H97.7351V23.56C97.7351 25.16 97.3191 26.3387 96.4871 27.096C95.6551 27.8533 94.4605 28.232 92.9031 28.232ZM92.5191 24.584C91.7191 24.584 90.9938 24.4133 90.3431 24.072C89.7031 23.72 89.1858 23.2347 88.7911 22.616C88.4071 21.9867 88.2151 21.256 88.2151 20.424C88.2151 19.5813 88.4071 18.8507 88.7911 18.232C89.1858 17.6027 89.7031 17.1173 90.3431 16.776C90.9938 16.4347 91.7191 16.264 92.5191 16.264C93.2445 16.264 93.8845 16.4133 94.4391 16.712C94.9938 17 95.4258 17.4533 95.7351 18.072C96.0445 18.68 96.1991 19.464 96.1991 20.424C96.1991 21.3733 96.0445 22.1573 95.7351 22.776C95.4258 23.384 94.9938 23.8373 94.4391 24.136C93.8845 24.4347 93.2445 24.584 92.5191 24.584ZM93.0151 22.536C93.4525 22.536 93.8418 22.4507 94.1831 22.28C94.5245 22.0987 94.7911 21.848 94.9831 21.528C95.1751 21.208 95.2711 20.84 95.2711 20.424C95.2711 19.9973 95.1751 19.6293 94.9831 19.32C94.7911 19 94.5245 18.7547 94.1831 18.584C93.8418 18.4027 93.4525 18.312 93.0151 18.312C92.5778 18.312 92.1885 18.4027 91.8471 18.584C91.5058 18.7547 91.2338 19 91.0311 19.32C90.8391 19.6293 90.7431 19.9973 90.7431 20.424C90.7431 20.84 90.8391 21.208 91.0311 21.528C91.2338 21.848 91.5058 22.0987 91.8471 22.28C92.1885 22.4507 92.5778 22.536 93.0151 22.536ZM100.058 25V16.392H102.442V18.824L102.106 18.12C102.362 17.512 102.773 17.0533 103.338 16.744C103.904 16.424 104.592 16.264 105.402 16.264V18.568C105.296 18.5573 105.2 18.552 105.114 18.552C105.029 18.5413 104.938 18.536 104.842 18.536C104.16 18.536 103.605 18.7333 103.178 19.128C102.762 19.512 102.554 20.1147 102.554 20.936V25H100.058ZM111.604 25V23.32L111.444 22.952V19.944C111.444 19.4107 111.279 18.9947 110.948 18.696C110.628 18.3973 110.132 18.248 109.46 18.248C109.001 18.248 108.548 18.3227 108.1 18.472C107.663 18.6107 107.289 18.8027 106.98 19.048L106.084 17.304C106.553 16.9733 107.119 16.7173 107.78 16.536C108.441 16.3547 109.113 16.264 109.796 16.264C111.108 16.264 112.127 16.5733 112.852 17.192C113.577 17.8107 113.94 18.776 113.94 20.088V25H111.604ZM108.98 25.128C108.308 25.128 107.732 25.016 107.252 24.792C106.772 24.5573 106.404 24.2427 106.148 23.848C105.892 23.4533 105.764 23.0107 105.764 22.52C105.764 22.008 105.887 21.56 106.132 21.176C106.388 20.792 106.788 20.4933 107.332 20.28C107.876 20.056 108.585 19.944 109.46 19.944H111.748V21.4H109.732C109.145 21.4 108.74 21.496 108.516 21.688C108.303 21.88 108.196 22.12 108.196 22.408C108.196 22.728 108.319 22.984 108.564 23.176C108.82 23.3573 109.167 23.448 109.604 23.448C110.02 23.448 110.393 23.352 110.724 23.16C111.055 22.9573 111.295 22.664 111.444 22.28L111.828 23.432C111.647 23.9867 111.316 24.408 110.836 24.696C110.356 24.984 109.737 25.128 108.98 25.128ZM127.223 16.264C127.906 16.264 128.508 16.4027 129.031 16.68C129.564 16.9467 129.98 17.3627 130.279 17.928C130.588 18.4827 130.743 19.1973 130.743 20.072V25H128.247V20.456C128.247 19.7627 128.103 19.2507 127.815 18.92C127.527 18.5893 127.122 18.424 126.599 18.424C126.236 18.424 125.911 18.5093 125.623 18.68C125.335 18.84 125.111 19.0853 124.951 19.416C124.791 19.7467 124.711 20.168 124.711 20.68V25H122.215V20.456C122.215 19.7627 122.071 19.2507 121.783 18.92C121.506 18.5893 121.106 18.424 120.583 18.424C120.22 18.424 119.895 18.5093 119.607 18.68C119.319 18.84 119.095 19.0853 118.935 19.416C118.775 19.7467 118.695 20.168 118.695 20.68V25H116.199V16.392H118.583V18.744L118.135 18.056C118.434 17.4693 118.855 17.0267 119.399 16.728C119.954 16.4187 120.583 16.264 121.287 16.264C122.076 16.264 122.764 16.4667 123.351 16.872C123.948 17.2667 124.343 17.8747 124.535 18.696L123.655 18.456C123.943 17.784 124.402 17.2507 125.031 16.856C125.671 16.4613 126.402 16.264 127.223 16.264Z" fill="#575757"/>
</svg>
