<svg width="30" height="37" viewBox="0 0 20 27" fill="none" xmlns="http://www.w3.org/2000/svg">
<path d="M1.16667 26.6836H18.8333C19.474 26.6836 20 26.1138 20 25.4115V13.2147C20 12.5125 19.4792 11.9484 18.8333 11.9484H17.7083V10.1698C17.7083 7.78108 16.8646 5.12759 15.4896 3.52744C14.1198 1.92729 12.1562 0.896973 10.0052 0.896973H10H9.99479C7.84375 0.896973 5.88021 1.92729 4.51042 3.52168C3.13542 5.12183 2.29167 7.77532 2.29167 10.164V11.9484H1.16667C0.520833 11.9484 0 12.5182 0 13.2147V25.4115C0 26.1138 0.520833 26.6836 1.16667 26.6836ZM5.05208 10.1698C5.05208 8.59842 5.56771 6.65291 6.51563 5.54777V5.53051C7.43229 4.4599 8.69792 3.8325 9.99479 3.8325H10.0052C11.3021 3.8325 12.5677 4.4599 13.4844 5.53051V5.54202L13.4792 5.54777C14.4323 6.65291 14.9427 8.59842 14.9427 10.1698V11.9484H5.05208V10.1698Z" fill="#1D223E"/>
</svg>
