<svg width="19" height="20" viewBox="0 0 19 20" fill="none" xmlns="http://www.w3.org/2000/svg">
<path d="M8.23792 0.0354998C3.6953 0.0354998 0 3.73079 0 8.27342C0 12.816 3.6953 16.5113 8.23792 16.5113C9.6266 16.5113 10.9917 16.1818 12.145 15.5463C12.2374 15.6575 12.3399 15.7599 12.451 15.8523L14.8047 18.206C15.0221 18.4505 15.2871 18.6481 15.5835 18.7865C15.88 18.9249 16.2016 19.0013 16.5286 19.0109C16.8556 19.0206 17.1812 18.9632 17.4852 18.8425C17.7893 18.7218 18.0655 18.5401 18.2968 18.3088C18.5282 18.0775 18.7098 17.8013 18.8305 17.4972C18.9513 17.1931 19.0086 16.8676 18.999 16.5406C18.9893 16.2135 18.913 15.8919 18.7745 15.5955C18.6361 15.299 18.4386 15.034 18.194 14.8167L15.8403 12.463C15.7257 12.3483 15.5995 12.2458 15.4638 12.157C16.0992 11.0037 16.4994 9.6621 16.4994 8.24988C16.4994 3.70726 12.8041 0.0119629 8.26146 0.0119629L8.23792 0.0354998ZM8.23792 2.38919C11.5096 2.38919 14.1221 5.00179 14.1221 8.27342C14.1221 9.82685 13.5573 11.2626 12.5687 12.3218C12.5452 12.3453 12.5216 12.3688 12.4981 12.3924C12.3869 12.4848 12.2845 12.5872 12.1921 12.6984C11.1565 13.6398 9.74428 14.1812 8.21438 14.1812C4.94275 14.1812 2.33015 11.5686 2.33015 8.29696C2.33015 5.02532 4.94275 2.41273 8.21438 2.41273L8.23792 2.38919Z" fill="white"/>
</svg>
